<svg width="20" height="20" viewBox="0 0 20 20" fill="none" xmlns="http://www.w3.org/2000/svg">
<path d="M8.05372 2.13621C7.96292 1.9546 7.70375 1.9546 7.61294 2.13621L7.21299 2.93612C7.18914 2.98381 7.15048 3.02248 7.10279 3.04632L6.30288 3.44628C6.12126 3.53708 6.12126 3.79625 6.30288 3.88706L7.10279 4.28702C7.15048 4.31086 7.18914 4.34952 7.21299 4.39721L7.61294 5.19712C7.70375 5.37874 7.96292 5.37874 8.05372 5.19712L8.45368 4.39721C8.47752 4.34952 8.51619 4.31086 8.56388 4.28702L9.36379 3.88706C9.5454 3.79625 9.5454 3.53708 9.36379 3.44628L8.56388 3.04632C8.51619 3.02248 8.47752 2.98381 8.45368 2.93612L8.05372 2.13621Z" fill="#3E71F4"/>
<path d="M4.29598 4.63141C4.20838 4.4562 3.95834 4.4562 3.87074 4.63141L3.3264 5.72009C3.30339 5.76609 3.26609 5.8034 3.22009 5.8264L2.13141 6.37074C1.9562 6.45834 1.9562 6.70838 2.13141 6.79598L3.22009 7.34032C3.26609 7.36332 3.30339 7.40063 3.3264 7.44663L3.87074 8.53531C3.95834 8.71052 4.20838 8.71052 4.29598 8.53531L4.84032 7.44663C4.86332 7.40063 4.90063 7.36332 4.94663 7.34032L6.03531 6.79598C6.21052 6.70838 6.21052 6.45834 6.03531 6.37074L4.94663 5.8264C4.90063 5.8034 4.86332 5.76609 4.84032 5.72009L4.29598 4.63141Z" fill="#3E71F4"/>
<path d="M15.5374 12.9647C15.625 12.7895 15.875 12.7895 15.9626 12.9647L16.507 14.0534C16.53 14.0994 16.5673 14.1367 16.6133 14.1597L17.7019 14.704C17.8771 14.7917 17.8771 15.0417 17.7019 15.1293L16.6133 15.6736C16.5673 15.6966 16.53 15.7339 16.507 15.7799L15.9626 16.8686C15.875 17.0438 15.625 17.0438 15.5374 16.8686L14.993 15.7799C14.97 15.7339 14.9327 15.6966 14.8867 15.6736L13.7981 15.1293C13.6229 15.0417 13.6229 14.7917 13.7981 14.704L14.8867 14.1597C14.9327 14.1367 14.97 14.0994 14.993 14.0534L15.5374 12.9647Z" fill="#3E71F4"/>
<path fill-rule="evenodd" clip-rule="evenodd" d="M16.1205 3.5699C15.2255 2.67495 13.7745 2.67495 12.8795 3.56991L3.50455 12.9449C3.07478 13.3747 2.83333 13.9576 2.83333 14.5654V17.2083C2.83333 17.5535 3.11316 17.8333 3.45833 17.8333H6.10131C6.7091 17.8333 7.29199 17.5919 7.72176 17.1621L17.0968 7.78712C17.9917 6.89217 17.9917 5.44117 17.0968 4.54622L16.1205 3.5699ZM13.7634 4.45379C14.1702 4.04699 14.8298 4.04699 15.2366 4.45379L16.2129 5.4301C16.6197 5.8369 16.6197 6.49644 16.2129 6.90324L6.83788 16.2782C6.64253 16.4736 6.37758 16.5833 6.10131 16.5833H4.08333V14.5654C4.08333 14.2891 4.19308 14.0241 4.38843 13.8288L13.7634 4.45379Z" fill="#3E71F4"/>
</svg>
