<svg width="20" height="20" viewBox="0 0 20 20" fill="none" xmlns="http://www.w3.org/2000/svg">
<path fill-rule="evenodd" clip-rule="evenodd" d="M14.273 6.72703C11.6369 4.09099 7.36306 4.09099 4.72702 6.72703C2.18032 9.27374 2.09398 13.3497 4.46814 15.9995C4.74454 16.308 4.71853 16.7822 4.41003 17.0586C4.10153 17.335 3.62737 17.309 3.35096 17.0005C0.44824 13.7607 0.553335 8.7794 3.66636 5.66637C6.88819 2.44454 12.1118 2.44454 15.3336 5.66637C18.4466 8.7794 18.5517 13.7607 15.649 17.0005C15.3726 17.309 14.8985 17.335 14.59 17.0586C14.2815 16.7822 14.2554 16.308 14.5318 15.9995C16.906 13.3497 16.8197 9.27374 14.273 6.72703ZM6.46853 8.46967C6.76142 8.17678 7.2363 8.17678 7.52919 8.46967L10.0292 10.9697C10.3221 11.2626 10.3221 11.7374 10.0292 12.0303C9.7363 12.3232 9.26142 12.3232 8.96853 12.0303L6.46853 9.53033C6.17564 9.23744 6.17564 8.76256 6.46853 8.46967Z" fill="#3E71F4"/>
</svg>
