<svg width="20" height="20" viewBox="0 0 20 20" fill="none" xmlns="http://www.w3.org/2000/svg">
<path fill-rule="evenodd" clip-rule="evenodd" d="M2.25 4C2.25 3.58579 2.58579 3.25 3 3.25H16.75C17.1642 3.25 17.5 3.58579 17.5 4C17.5 4.41421 17.1642 4.75 16.75 4.75H3C2.58579 4.75 2.25 4.41421 2.25 4ZM14.0417 7.20833C14.3257 7.20833 14.5854 7.36883 14.7125 7.62292L15.8507 9.89932L18.1271 11.0375C18.3812 11.1646 18.5417 11.4243 18.5417 11.7083C18.5417 11.9924 18.3812 12.2521 18.1271 12.3792L15.8507 13.5174L14.7125 15.7937C14.5854 16.0478 14.3257 16.2083 14.0417 16.2083C13.7576 16.2083 13.4979 16.0478 13.3708 15.7937L12.2326 13.5174L9.95626 12.3792C9.70217 12.2521 9.54167 11.9924 9.54167 11.7083C9.54167 11.4243 9.70217 11.1646 9.95626 11.0375L12.2326 9.89932L13.3708 7.62292C13.4979 7.36884 13.7576 7.20833 14.0417 7.20833ZM14.0417 9.63539L13.4625 10.7937C13.3899 10.9389 13.2722 11.0566 13.1271 11.1292L11.9687 11.7083L13.1271 12.2875C13.2722 12.3601 13.3899 12.4778 13.4625 12.6229L14.0417 13.7813L14.6208 12.6229C14.6934 12.4778 14.8111 12.3601 14.9563 12.2875L16.1146 11.7083L14.9563 11.1292C14.8111 11.0566 14.6934 10.9389 14.6208 10.7937L14.0417 9.63539ZM2.25 9.20833C2.25 8.79412 2.58579 8.45833 3 8.45833H7.58333C7.99755 8.45833 8.33333 8.79412 8.33333 9.20833C8.33333 9.62255 7.99755 9.95833 7.58333 9.95833H3C2.58579 9.95833 2.25 9.62255 2.25 9.20833ZM2.25 14.4167C2.25 14.0025 2.58579 13.6667 3 13.6667H5.91667C6.33088 13.6667 6.66667 14.0025 6.66667 14.4167C6.66667 14.8309 6.33088 15.1667 5.91667 15.1667H3C2.58579 15.1667 2.25 14.8309 2.25 14.4167Z" fill="#3E71F4"/>
</svg>
